<svg width="32" height="32" viewBox="0 0 32 32" fill="none" xmlns="http://www.w3.org/2000/svg">
<g id="at-sign">
<path id="Vector" d="M16.0003 21.3337C18.9458 21.3337 21.3337 18.9458 21.3337 16.0003C21.3337 13.0548 18.9458 10.667 16.0003 10.667C13.0548 10.667 10.667 13.0548 10.667 16.0003C10.667 18.9458 13.0548 21.3337 16.0003 21.3337Z" stroke="#1041B7" stroke-width="2.67" stroke-linecap="round" stroke-linejoin="round"/>
<path id="Vector_2" d="M21.3337 10.6671V17.3338C21.3337 18.3947 21.7551 19.4121 22.5052 20.1622C23.2554 20.9124 24.2728 21.3338 25.3337 21.3338C26.3945 21.3338 27.412 20.9124 28.1621 20.1622C28.9122 19.4121 29.3337 18.3947 29.3337 17.3338V16.0005C29.3335 12.9912 28.3153 10.0704 26.4447 7.71318C24.5741 5.35592 21.9611 3.70077 19.0305 3.01687C16.1 2.33297 13.0242 2.66053 10.3035 3.9463C7.58269 5.23206 5.37687 7.40042 4.04468 10.0988C2.7125 12.7971 2.33229 15.8668 2.9659 18.8086C3.5995 21.7505 5.20964 24.3915 7.53451 26.3022C9.85938 28.2129 12.7622 29.2809 15.7711 29.3327C18.7799 29.3844 21.7178 28.4168 24.107 26.5871" stroke="#1041B7" stroke-width="2.67" stroke-linecap="round" stroke-linejoin="round"/>
</g>
</svg>
