<svg width="361" height="295" viewBox="0 0 361 295" fill="none" xmlns="http://www.w3.org/2000/svg">
<mask id="mask0_290_8109" style="mask-type:alpha" maskUnits="userSpaceOnUse" x="0" y="0" width="361" height="261">
<path d="M270.989 7.016C330.287 120.041 360.039 189.438 360.246 215.209C360.739 277.241 275.028 251.704 249.789 257.295C188.337 270.907 177.32 237.391 93.9227 251.931C21.9157 264.484 -19.4553 171.626 10.7247 111.977C13.9077 105.686 12.1877 68.36 5.56668 0L270.989 7.016Z" fill="white"/>
</mask>
<g mask="url(#mask0_290_8109)">
<mask id="mask1_290_8109" style="mask-type:alpha" maskUnits="userSpaceOnUse" x="38" y="5" width="237" height="234">
<path d="M219.668 5.854L274.695 60.882L211.387 124.188L270.302 183.103L215.275 238.13L156.361 179.216L98.0743 237.503L43.0473 182.475L101.334 124.189L38.6543 61.509L93.6813 6.482L156.361 69.162L219.668 5.854Z" fill="white"/>
</mask>
<g mask="url(#mask1_290_8109)">
<path d="M219.668 5.854L274.695 60.882L211.387 124.188L270.302 183.103L215.275 238.13L156.361 179.216L98.0743 237.503L43.0473 182.475L101.334 124.189L38.6543 61.509L93.6813 6.482L156.361 69.162L219.668 5.854Z" fill="#1041B7"/>
<mask id="mask2_290_8109" style="mask-type:alpha" maskUnits="userSpaceOnUse" x="-50" y="-98" width="380" height="380">
<path d="M329.883 -97.646H-49.2266V281.465H329.883V-97.646Z" fill="white"/>
</mask>
<g mask="url(#mask2_290_8109)">
<path d="M329.883 -97.646H-49.2266V281.465H329.883V-97.646Z" fill="#1041B7"/>
<path d="M102.119 -97.646C107.479 -28.038 132.419 14.1 176.94 28.767C221.461 43.435 281.954 22.366 358.421 -34.439" stroke="white" stroke-width="1.333"/>
<path d="M128.464 -97.646C140.329 -15.812 113.68 26.468 48.5173 29.194C-49.2277 33.282 21.3903 -40.948 54.7363 -11.357C88.0823 18.233 85.3673 82.305 33.3373 126.22C-1.34866 155.496 -40.8697 170.134 -85.2227 170.134M329.883 127.153C185.433 117.819 70.8523 169.257 -13.8577 281.465" stroke="white" stroke-width="1.333"/>
<path d="M-49.2285 126.078C45.5235 151.476 106.609 203.272 134.028 281.465" stroke="white" stroke-width="1.333"/>
<path d="M329.883 36.2441C265.95 100.063 221.322 118.618 195.998 91.9091C158.013 51.8461 230.57 20.2991 241.272 56.1041C251.974 91.9091 194.757 120.326 118.579 132.964C67.7929 141.39 7.69892 178.249 -61.7051 243.543M188.67 281.465C179.274 225.684 191.562 195.763 225.533 191.703C259.505 187.643 297.277 202.603 338.849 236.584" stroke="white" stroke-width="1.333"/>
<path d="M329.884 77.7109C269.366 136.713 243.396 208.244 251.975 292.305" stroke="white" stroke-width="1.333"/>
<path d="M-49.2285 46.9331C100.245 77.1331 217.538 158.924 302.65 292.305M-49.2285 203.771C-13.6525 256.799 24.0455 270.057 63.8645 243.542C123.594 203.771 143.845 195.515 168.739 203.771C185.336 209.275 200.427 235.173 214.014 281.465" stroke="white" stroke-width="1.333"/>
</g>
</g>
<mask id="mask3_290_8109" style="mask-type:alpha" maskUnits="userSpaceOnUse" x="245" y="214" width="41" height="22">
<path d="M285.474 214.439V235.752H245.689V214.439H285.474Z" fill="white"/>
</mask>
<g mask="url(#mask3_290_8109)">
<path d="M285.474 214.439V235.752H245.689V214.439H285.474Z" fill="white" stroke="#01133B" stroke-width="1.333" stroke-linecap="round" stroke-linejoin="round"/>
<path d="M312.38 230.082C312.38 243.376 302.401 254.153 290.091 254.153C277.782 254.153 267.803 243.376 267.803 230.082C267.803 216.788 277.782 206.011 290.091 206.011C302.401 206.011 312.38 216.788 312.38 230.082Z" fill="#01133B"/>
</g>
<path fill-rule="evenodd" clip-rule="evenodd" d="M120.534 116.744C107.256 131.445 96.3634 142.635 87.8554 150.314C68.5354 167.754 62.3464 179.813 53.6394 187.125C47.8834 191.958 30.0214 187.169 17.5194 187.169C1.74135 187.169 -16.4256 191.514 -24.3546 196.685C-35.7706 204.131 -35.7046 219.136 -24.1546 241.701H81.4164L185.75 132.559L167.626 115.105C154.578 102.539 133.815 102.93 121.249 115.978C121.007 116.23 120.769 116.485 120.534 116.744Z" fill="white" stroke="#01133B" stroke-width="1.333" stroke-linecap="round" stroke-linejoin="round"/>
<path d="M-24.1562 226.145C-15.1372 222.913 -2.48325 220.846 13.8078 219.944C38.2438 218.591 50.5638 228.1 63.5488 221.289C76.5328 214.479 85.0628 192.285 96.3278 179.469C107.593 166.653 112.196 166.384 122.688 154.448C126.976 149.57 131.068 144.86 134.963 140.319C138.632 136.041 145.075 135.548 149.352 139.217C149.549 139.386 149.74 139.563 149.924 139.747L164.625 154.448" stroke="#01133B" stroke-width="1.333" stroke-linecap="round" stroke-linejoin="round"/>
<path d="M153.711 176.29C144.662 167.343 142.811 153.407 149.21 142.406L149.865 141.278" stroke="#01133B" stroke-width="1.56" stroke-linecap="round" stroke-linejoin="round"/>
<path d="M150.86 179.458C140.357 169.057 138.239 152.859 145.714 140.105L146.699 138.426" stroke="#01133B" stroke-width="0.729" stroke-linecap="round" stroke-linejoin="round" stroke-dasharray="2.19 2.19"/>
<path d="M109.663 241.152V201.367H82.9961V241.152H109.663Z" fill="white"/>
<path fill-rule="evenodd" clip-rule="evenodd" d="M108.747 195.978H62.032C60.5312 195.978 59.0918 196.574 58.0305 197.636C56.9693 198.697 56.373 200.136 56.373 201.637C56.373 203.138 56.9693 204.577 58.0305 205.639C59.0918 206.7 60.5312 207.296 62.032 207.296H85.346" fill="white"/>
<path d="M108.747 195.978H62.032C60.5312 195.978 59.0918 196.574 58.0305 197.636C56.9693 198.697 56.373 200.136 56.373 201.637C56.373 203.138 56.9693 204.577 58.0305 205.639C59.0918 206.7 60.5312 207.296 62.032 207.296H85.346" stroke="#01133B" stroke-width="1.333" stroke-linecap="round" stroke-linejoin="round"/>
<path fill-rule="evenodd" clip-rule="evenodd" d="M88.7118 237.35L81.4328 241.541C80.7941 241.909 80.2341 242.399 79.7848 242.983C79.3354 243.567 79.0056 244.234 78.814 244.946C78.6224 245.657 78.5729 246.4 78.6683 247.131C78.7636 247.862 79.002 248.566 79.3698 249.205L79.3758 249.216C80.1239 250.508 81.3538 251.45 82.7957 251.837C84.2377 252.223 85.7741 252.022 87.0678 251.277L105.814 240.482" fill="white"/>
<path d="M88.7118 237.35L81.4328 241.541C80.7941 241.909 80.2341 242.399 79.7848 242.983C79.3354 243.567 79.0056 244.234 78.814 244.946C78.6224 245.657 78.5729 246.4 78.6683 247.131C78.7636 247.862 79.002 248.566 79.3698 249.205L79.3758 249.216C80.1239 250.508 81.3538 251.45 82.7957 251.837C84.2377 252.223 85.7741 252.022 87.0678 251.277L105.814 240.482" stroke="#01133B" stroke-width="1.333" stroke-linecap="round" stroke-linejoin="round"/>
<path fill-rule="evenodd" clip-rule="evenodd" d="M85.3102 207.245H61.8972C61.1653 207.235 60.4388 207.371 59.7598 207.644C59.0808 207.917 58.4628 208.323 57.9418 208.837C57.4207 209.351 57.007 209.963 56.7247 210.639C56.4423 211.314 56.2969 212.039 56.2969 212.771C56.2969 213.503 56.4423 214.227 56.7247 214.903C57.007 215.578 57.4207 216.19 57.9418 216.704C58.4628 217.218 59.0808 217.624 59.7598 217.897C60.4388 218.17 61.1653 218.306 61.8972 218.296H85.3102" fill="white"/>
<path d="M85.3102 207.245H61.8972C61.1653 207.235 60.4388 207.371 59.7598 207.644C59.0808 207.917 58.4628 208.323 57.9418 208.837C57.4207 209.351 57.007 209.963 56.7247 210.639C56.4423 211.314 56.2969 212.039 56.2969 212.771C56.2969 213.503 56.4423 214.227 56.7247 214.903C57.007 215.578 57.4207 216.19 57.9418 216.704C58.4628 217.218 59.0808 217.624 59.7598 217.897C60.4388 218.17 61.1653 218.306 61.8972 218.296H85.3102" stroke="#01133B" stroke-width="1.333" stroke-linecap="round" stroke-linejoin="round"/>
<path fill-rule="evenodd" clip-rule="evenodd" d="M85.4989 218.296H61.8989C60.4464 218.315 59.0599 218.906 58.0396 219.94C57.0193 220.974 56.4473 222.369 56.4473 223.821C56.4473 225.274 57.0193 226.668 58.0396 227.702C59.0599 228.737 60.4464 229.327 61.8989 229.347H85.4989" fill="white"/>
<path d="M85.4989 218.296H61.8989C60.4464 218.315 59.0599 218.906 58.0396 219.94C57.0193 220.974 56.4473 222.369 56.4473 223.821C56.4473 225.274 57.0193 226.668 58.0396 227.702C59.0599 228.737 60.4464 229.327 61.8989 229.347H85.4989" stroke="#01133B" stroke-width="1.333" stroke-linecap="round" stroke-linejoin="round"/>
<path fill-rule="evenodd" clip-rule="evenodd" d="M85.6813 229.692H62.4663C60.8974 229.692 59.3928 230.315 58.2834 231.424C57.174 232.534 56.5508 234.039 56.5508 235.607C56.5508 237.176 57.174 238.681 58.2834 239.79C59.3928 240.9 60.8974 241.523 62.4663 241.523H112.197" fill="white"/>
<path d="M85.6813 229.692H62.4663C60.8974 229.692 59.3928 230.315 58.2834 231.424C57.174 232.534 56.5508 234.039 56.5508 235.607C56.5508 237.176 57.174 238.681 58.2834 239.79C59.3928 240.9 60.8974 241.523 62.4663 241.523H112.197" stroke="#01133B" stroke-width="1.333" stroke-linecap="round" stroke-linejoin="round"/>
<path d="M303.646 205.004C314.044 205.004 322.473 213.433 322.473 223.831C322.473 234.229 314.044 242.658 303.646 242.658H295.292C284.894 242.658 276.465 234.229 276.465 223.831C276.465 213.433 284.894 205.004 295.292 205.004H303.646Z" fill="#01133B"/>
<path fill-rule="evenodd" clip-rule="evenodd" d="M316.788 210.614C318.957 206.874 316.9 205.005 310.617 205.005C304.334 205.005 299.499 205.34 296.11 206.011C295.149 206.861 294.805 207.434 295.076 207.731C298.858 211.876 304.669 212.925 309.223 214.232C314.266 215.68 316.788 214.474 316.788 210.614Z" fill="#01133B"/>
<path fill-rule="evenodd" clip-rule="evenodd" d="M295.732 207.257L296.037 205.275C296.132 204.655 296.084 204.021 295.896 203.423C295.708 202.825 295.385 202.277 294.952 201.823C294.52 201.369 293.988 201.021 293.4 200.805C292.811 200.588 292.18 200.51 291.557 200.576C289.999 200.74 288.527 201.371 287.333 202.385C286.14 203.4 285.281 204.752 284.869 206.263L284.598 207.257H295.732Z" fill="white" stroke="#01133B" stroke-width="1.333" stroke-linecap="round" stroke-linejoin="round"/>
<path d="M292.385 204.93H288.918M290.206 204.93L291.514 203.31" stroke="#01133B" stroke-width="1.333" stroke-linecap="round" stroke-linejoin="round"/>
<path fill-rule="evenodd" clip-rule="evenodd" d="M299.728 207.257H287.321C277.899 207.257 270.262 214.894 270.262 224.316C270.262 233.737 277.899 241.375 287.321 241.375H299.728C309.149 241.375 316.787 233.737 316.787 224.316C316.787 214.894 309.149 207.257 299.728 207.257Z" fill="white" stroke="#01133B" stroke-width="1.333" stroke-linecap="round" stroke-linejoin="round"/>
<path d="M283.914 231.975C279.61 227.961 279.374 221.217 283.388 216.913M290.939 225.302L286.566 226.005L286.154 223.604" stroke="#01133B" stroke-width="1.333" stroke-linecap="round" stroke-linejoin="round"/>
<path d="M292.25 233.879C292.25 232.024 293.114 230.519 294.18 230.519C295.246 230.519 296.11 232.024 296.11 233.879C296.11 235.735 295.246 237.239 294.18 237.239C293.114 237.239 292.25 235.735 292.25 233.879Z" stroke="#01133B" stroke-width="1.061" stroke-linecap="round" stroke-linejoin="round"/>
<path d="M292.25 233.879C292.25 232.766 293.114 231.863 294.18 231.863C295.246 231.863 296.11 232.766 296.11 233.879C296.11 234.993 295.246 235.895 294.18 235.895C293.114 235.895 292.25 234.993 292.25 233.879Z" fill="#01133B"/>
<path d="M292.25 215.269C292.25 213.414 293.114 211.909 294.18 211.909C295.246 211.909 296.11 213.414 296.11 215.269C296.11 217.125 295.246 218.63 294.18 218.63C293.114 218.63 292.25 217.125 292.25 215.269Z" stroke="#01133B" stroke-width="1.061" stroke-linecap="round" stroke-linejoin="round"/>
<path d="M292.25 215.269C292.25 214.156 293.114 213.253 294.18 213.253C295.246 213.253 296.11 214.156 296.11 215.269C296.11 216.383 295.246 217.285 294.18 217.285C293.114 217.285 292.25 216.383 292.25 215.269Z" fill="#01133B"/>
<path fill-rule="evenodd" clip-rule="evenodd" d="M318.519 231.967C321.633 219.445 321.055 210.002 316.786 203.638C310.381 194.093 292.748 202.529 298.511 223.561C302.354 237.582 309.023 240.384 318.519 231.967Z" fill="#01133B"/>
<path fill-rule="evenodd" clip-rule="evenodd" d="M314.871 239.926C320.004 238.612 328.496 223.344 325.875 215.321C324.128 209.972 318.066 211.524 307.688 219.976C309.056 234.152 311.45 240.801 314.871 239.926Z" fill="#01133B"/>
<path fill-rule="evenodd" clip-rule="evenodd" d="M320.083 234.888C324.603 237.664 324.603 239.793 320.083 241.277C315.564 242.761 307.266 243.096 295.189 242.281C299.053 238.831 303.65 236.303 308.633 234.888C313.677 233.441 317.493 233.441 320.083 234.888Z" fill="#01133B"/>
<path d="M109.561 195.7V241.152" stroke="#01133B" stroke-width="1.333" stroke-linecap="round" stroke-linejoin="round"/>
<path fill-rule="evenodd" clip-rule="evenodd" d="M164.625 111.1L263.628 211.767L258.548 224.907C256.608 229.927 253.193 234.243 248.754 237.286C244.315 240.329 239.058 241.958 233.676 241.958H109.662V196.24L145.927 195.715L139.15 189.621C135.797 186.606 133.562 182.546 132.806 178.101C132.05 173.655 132.819 169.085 134.988 165.131L164.625 111.1Z" fill="#E6E8EF" stroke="#01133B" stroke-width="1.333" stroke-linecap="round" stroke-linejoin="round"/>
<path d="M255.742 204.12C250.994 213.827 249.807 223.712 252.181 233.774M142.217 195.887H177.128" stroke="#01133B" stroke-width="1.333" stroke-linecap="round" stroke-linejoin="round"/>
<path fill-rule="evenodd" clip-rule="evenodd" d="M125.793 187.169V245.164L105.793 243.571V189.708L125.793 187.169Z" fill="#E6E8EF" stroke="#01133B" stroke-width="1.333" stroke-linecap="round" stroke-linejoin="round"/>
<path fill-rule="evenodd" clip-rule="evenodd" d="M127.547 195.978L129.265 241.523H125.791V195.978H127.547Z" fill="#01133B"/>
</g>
<path d="M110.381 275.965V274.076H121.638V275.965H117.099V288.622H114.912V275.965H110.381ZM123.955 288.622V277.712H126.078V288.622H123.955ZM125.027 276.029C124.658 276.029 124.341 275.906 124.076 275.66C123.815 275.409 123.685 275.111 123.685 274.765C123.685 274.415 123.815 274.116 124.076 273.87C124.341 273.619 124.658 273.494 125.027 273.494C125.397 273.494 125.712 273.619 125.972 273.87C126.237 274.116 126.37 274.415 126.37 274.765C126.37 275.111 126.237 275.409 125.972 275.66C125.712 275.906 125.397 276.029 125.027 276.029ZM133.019 288.835C132.138 288.835 131.353 288.61 130.661 288.16C129.975 287.705 129.435 287.059 129.042 286.221C128.654 285.378 128.46 284.367 128.46 283.188C128.46 282.009 128.656 281.001 129.049 280.163C129.447 279.325 129.991 278.683 130.683 278.238C131.374 277.793 132.157 277.57 133.033 277.57C133.71 277.57 134.255 277.684 134.667 277.911C135.084 278.134 135.406 278.394 135.633 278.693C135.865 278.991 136.045 279.254 136.173 279.481H136.3V274.076H138.424V288.622H136.35V286.924H136.173C136.045 287.156 135.86 287.421 135.619 287.72C135.382 288.018 135.055 288.278 134.638 288.501C134.222 288.723 133.682 288.835 133.019 288.835ZM133.488 287.024C134.099 287.024 134.615 286.863 135.036 286.541C135.462 286.214 135.784 285.762 136.002 285.184C136.225 284.606 136.336 283.934 136.336 283.167C136.336 282.409 136.227 281.747 136.009 281.178C135.791 280.61 135.472 280.168 135.05 279.85C134.629 279.533 134.108 279.374 133.488 279.374C132.849 279.374 132.316 279.54 131.89 279.872C131.464 280.203 131.142 280.655 130.924 281.228C130.711 281.801 130.604 282.447 130.604 283.167C130.604 283.896 130.713 284.552 130.931 285.134C131.149 285.717 131.471 286.178 131.897 286.519C132.328 286.855 132.858 287.024 133.488 287.024ZM144.63 288.863C143.938 288.863 143.313 288.735 142.755 288.48C142.196 288.219 141.753 287.843 141.426 287.35C141.105 286.858 140.944 286.254 140.944 285.539C140.944 284.924 141.062 284.417 141.299 284.019C141.535 283.622 141.855 283.307 142.257 283.075C142.66 282.843 143.11 282.668 143.607 282.549C144.104 282.431 144.611 282.341 145.127 282.279C145.78 282.203 146.31 282.142 146.718 282.095C147.125 282.043 147.421 281.96 147.605 281.846C147.79 281.732 147.882 281.548 147.882 281.292V281.242C147.882 280.622 147.707 280.141 147.357 279.801C147.011 279.46 146.495 279.289 145.809 279.289C145.094 279.289 144.53 279.448 144.118 279.765C143.711 280.078 143.429 280.426 143.273 280.809L141.277 280.355C141.514 279.692 141.86 279.157 142.314 278.749C142.774 278.337 143.301 278.039 143.898 277.855C144.495 277.665 145.122 277.57 145.78 277.57C146.216 277.57 146.677 277.623 147.165 277.727C147.658 277.826 148.117 278.011 148.543 278.281C148.974 278.551 149.327 278.936 149.601 279.438C149.876 279.936 150.013 280.582 150.013 281.377V288.622H147.939V287.13H147.854C147.717 287.405 147.511 287.675 147.236 287.94C146.962 288.205 146.609 288.425 146.178 288.6C145.747 288.775 145.231 288.863 144.63 288.863ZM145.091 287.159C145.678 287.159 146.18 287.043 146.597 286.811C147.018 286.578 147.338 286.275 147.556 285.901C147.778 285.523 147.89 285.118 147.89 284.687V283.281C147.814 283.356 147.667 283.427 147.449 283.494C147.236 283.555 146.992 283.61 146.718 283.657C146.443 283.7 146.176 283.74 145.915 283.778C145.655 283.811 145.437 283.839 145.262 283.863C144.85 283.915 144.473 284.003 144.132 284.126C143.796 284.249 143.526 284.427 143.323 284.659C143.124 284.886 143.025 285.189 143.025 285.568C143.025 286.093 143.219 286.491 143.607 286.761C143.995 287.026 144.49 287.159 145.091 287.159ZM154.795 284.921L154.781 282.329H155.15L159.496 277.712H162.039L157.082 282.968H156.748L154.795 284.921ZM152.842 288.622V274.076H154.965V288.622H152.842ZM159.731 288.622L155.825 283.437L157.288 281.953L162.337 288.622H159.731ZM172.442 288.863C171.751 288.863 171.126 288.735 170.567 288.48C170.008 288.219 169.566 287.843 169.239 287.35C168.917 286.858 168.756 286.254 168.756 285.539C168.756 284.924 168.874 284.417 169.111 284.019C169.348 283.622 169.667 283.307 170.07 283.075C170.472 282.843 170.922 282.668 171.419 282.549C171.917 282.431 172.423 282.341 172.939 282.279C173.593 282.203 174.123 282.142 174.53 282.095C174.937 282.043 175.233 281.96 175.418 281.846C175.603 281.732 175.695 281.548 175.695 281.292V281.242C175.695 280.622 175.52 280.141 175.169 279.801C174.824 279.46 174.308 279.289 173.621 279.289C172.906 279.289 172.343 279.448 171.931 279.765C171.524 280.078 171.242 280.426 171.086 280.809L169.09 280.355C169.327 279.692 169.672 279.157 170.127 278.749C170.586 278.337 171.114 278.039 171.711 277.855C172.307 277.665 172.935 277.57 173.593 277.57C174.028 277.57 174.49 277.623 174.978 277.727C175.47 277.826 175.929 278.011 176.355 278.281C176.786 278.551 177.139 278.936 177.414 279.438C177.688 279.936 177.826 280.582 177.826 281.377V288.622H175.752V287.13H175.667C175.529 287.405 175.323 287.675 175.049 287.94C174.774 288.205 174.421 288.425 173.99 288.6C173.56 288.775 173.043 288.863 172.442 288.863ZM172.904 287.159C173.491 287.159 173.993 287.043 174.409 286.811C174.831 286.578 175.15 286.275 175.368 285.901C175.591 285.523 175.702 285.118 175.702 284.687V283.281C175.626 283.356 175.48 283.427 175.262 283.494C175.049 283.555 174.805 283.61 174.53 283.657C174.256 283.7 173.988 283.74 173.728 283.778C173.467 283.811 173.249 283.839 173.074 283.863C172.662 283.915 172.286 284.003 171.945 284.126C171.609 284.249 171.339 284.427 171.135 284.659C170.936 284.886 170.837 285.189 170.837 285.568C170.837 286.093 171.031 286.491 171.419 286.761C171.808 287.026 172.302 287.159 172.904 287.159ZM184.738 288.835C183.857 288.835 183.071 288.61 182.38 288.16C181.693 287.705 181.154 287.059 180.761 286.221C180.372 285.378 180.178 284.367 180.178 283.188C180.178 282.009 180.375 281.001 180.768 280.163C181.165 279.325 181.71 278.683 182.401 278.238C183.093 277.793 183.876 277.57 184.752 277.57C185.429 277.57 185.974 277.684 186.386 277.911C186.802 278.134 187.124 278.394 187.352 278.693C187.584 278.991 187.763 279.254 187.891 279.481H188.019V274.076H190.143V288.622H188.069V286.924H187.891C187.763 287.156 187.579 287.421 187.337 287.72C187.101 288.018 186.774 288.278 186.357 288.501C185.941 288.723 185.401 288.835 184.738 288.835ZM185.207 287.024C185.817 287.024 186.334 286.863 186.755 286.541C187.181 286.214 187.503 285.762 187.721 285.184C187.943 284.606 188.055 283.934 188.055 283.167C188.055 282.409 187.946 281.747 187.728 281.178C187.51 280.61 187.191 280.168 186.769 279.85C186.348 279.533 185.827 279.374 185.207 279.374C184.567 279.374 184.035 279.54 183.609 279.872C183.183 280.203 182.861 280.655 182.643 281.228C182.43 281.801 182.323 282.447 182.323 283.167C182.323 283.896 182.432 284.552 182.65 285.134C182.868 285.717 183.19 286.178 183.616 286.519C184.047 286.855 184.577 287.024 185.207 287.024ZM196.348 288.863C195.657 288.863 195.032 288.735 194.473 288.48C193.915 288.219 193.472 287.843 193.145 287.35C192.823 286.858 192.662 286.254 192.662 285.539C192.662 284.924 192.781 284.417 193.017 284.019C193.254 283.622 193.574 283.307 193.976 283.075C194.379 282.843 194.828 282.668 195.326 282.549C195.823 282.431 196.329 282.341 196.846 282.279C197.499 282.203 198.029 282.142 198.436 282.095C198.844 282.043 199.14 281.96 199.324 281.846C199.509 281.732 199.601 281.548 199.601 281.292V281.242C199.601 280.622 199.426 280.141 199.076 279.801C198.73 279.46 198.214 279.289 197.527 279.289C196.812 279.289 196.249 279.448 195.837 279.765C195.43 280.078 195.148 280.426 194.992 280.809L192.996 280.355C193.233 279.692 193.578 279.157 194.033 278.749C194.492 278.337 195.02 278.039 195.617 277.855C196.213 277.665 196.841 277.57 197.499 277.57C197.935 277.57 198.396 277.623 198.884 277.727C199.376 277.826 199.836 278.011 200.262 278.281C200.693 278.551 201.045 278.936 201.32 279.438C201.595 279.936 201.732 280.582 201.732 281.377V288.622H199.658V287.13H199.573C199.435 287.405 199.23 287.675 198.955 287.94C198.68 288.205 198.328 288.425 197.897 288.6C197.466 288.775 196.95 288.863 196.348 288.863ZM196.81 287.159C197.397 287.159 197.899 287.043 198.316 286.811C198.737 286.578 199.057 286.275 199.275 285.901C199.497 285.523 199.608 285.118 199.608 284.687V283.281C199.533 283.356 199.386 283.427 199.168 283.494C198.955 283.555 198.711 283.61 198.436 283.657C198.162 283.7 197.894 283.74 197.634 283.778C197.373 283.811 197.156 283.839 196.98 283.863C196.569 283.915 196.192 284.003 195.851 284.126C195.515 284.249 195.245 284.427 195.042 284.659C194.843 284.886 194.743 285.189 194.743 285.568C194.743 286.093 194.937 286.491 195.326 286.761C195.714 287.026 196.209 287.159 196.81 287.159ZM213.937 288.835C213.056 288.835 212.27 288.61 211.579 288.16C210.893 287.705 210.353 287.059 209.96 286.221C209.572 285.378 209.377 284.367 209.377 283.188C209.377 282.009 209.574 281.001 209.967 280.163C210.365 279.325 210.909 278.683 211.6 278.238C212.292 277.793 213.075 277.57 213.951 277.57C214.628 277.57 215.173 277.684 215.585 277.911C216.002 278.134 216.324 278.394 216.551 278.693C216.783 278.991 216.963 279.254 217.091 279.481H217.218V274.076H219.342V288.622H217.268V286.924H217.091C216.963 287.156 216.778 287.421 216.537 287.72C216.3 288.018 215.973 288.278 215.556 288.501C215.14 288.723 214.6 288.835 213.937 288.835ZM214.406 287.024C215.017 287.024 215.533 286.863 215.954 286.541C216.38 286.214 216.702 285.762 216.92 285.184C217.143 284.606 217.254 283.934 217.254 283.167C217.254 282.409 217.145 281.747 216.927 281.178C216.709 280.61 216.39 280.168 215.968 279.85C215.547 279.533 215.026 279.374 214.406 279.374C213.767 279.374 213.234 279.54 212.808 279.872C212.382 280.203 212.06 280.655 211.842 281.228C211.629 281.801 211.522 282.447 211.522 283.167C211.522 283.896 211.631 284.552 211.849 285.134C212.067 285.717 212.389 286.178 212.815 286.519C213.246 286.855 213.776 287.024 214.406 287.024ZM225.548 288.863C224.856 288.863 224.231 288.735 223.673 288.48C223.114 288.219 222.671 287.843 222.344 287.35C222.022 286.858 221.862 286.254 221.862 285.539C221.862 284.924 221.98 284.417 222.217 284.019C222.453 283.622 222.773 283.307 223.175 283.075C223.578 282.843 224.028 282.668 224.525 282.549C225.022 282.431 225.529 282.341 226.045 282.279C226.698 282.203 227.228 282.142 227.636 282.095C228.043 282.043 228.339 281.96 228.523 281.846C228.708 281.732 228.8 281.548 228.8 281.292V281.242C228.8 280.622 228.625 280.141 228.275 279.801C227.929 279.46 227.413 279.289 226.727 279.289C226.012 279.289 225.448 279.448 225.036 279.765C224.629 280.078 224.347 280.426 224.191 280.809L222.195 280.355C222.432 279.692 222.778 279.157 223.232 278.749C223.692 278.337 224.219 278.039 224.816 277.855C225.413 277.665 226.04 277.57 226.698 277.57C227.134 277.57 227.595 277.623 228.083 277.727C228.576 277.826 229.035 278.011 229.461 278.281C229.892 278.551 230.245 278.936 230.519 279.438C230.794 279.936 230.931 280.582 230.931 281.377V288.622H228.857V287.13H228.772C228.635 287.405 228.429 287.675 228.154 287.94C227.879 288.205 227.527 288.425 227.096 288.6C226.665 288.775 226.149 288.863 225.548 288.863ZM226.009 287.159C226.596 287.159 227.098 287.043 227.515 286.811C227.936 286.578 228.256 286.275 228.474 285.901C228.696 285.523 228.808 285.118 228.808 284.687V283.281C228.732 283.356 228.585 283.427 228.367 283.494C228.154 283.555 227.91 283.61 227.636 283.657C227.361 283.7 227.094 283.74 226.833 283.778C226.573 283.811 226.355 283.839 226.18 283.863C225.768 283.915 225.391 284.003 225.05 284.126C224.714 284.249 224.444 284.427 224.241 284.659C224.042 284.886 223.942 285.189 223.942 285.568C223.942 286.093 224.137 286.491 224.525 286.761C224.913 287.026 225.408 287.159 226.009 287.159ZM238.852 277.712V279.417H232.893V277.712H238.852ZM234.491 275.099H236.615V285.418C236.615 285.83 236.676 286.141 236.799 286.349C236.922 286.552 237.081 286.692 237.275 286.768C237.474 286.839 237.69 286.874 237.922 286.874C238.092 286.874 238.241 286.863 238.369 286.839C238.497 286.815 238.596 286.796 238.667 286.782L239.051 288.536C238.928 288.584 238.752 288.631 238.525 288.678C238.298 288.73 238.014 288.759 237.673 288.764C237.114 288.773 236.593 288.674 236.11 288.465C235.627 288.257 235.237 287.935 234.939 287.499C234.64 287.064 234.491 286.517 234.491 285.859V275.099ZM244.376 288.863C243.684 288.863 243.059 288.735 242.501 288.48C241.942 288.219 241.499 287.843 241.173 287.35C240.851 286.858 240.69 286.254 240.69 285.539C240.69 284.924 240.808 284.417 241.045 284.019C241.281 283.622 241.601 283.307 242.004 283.075C242.406 282.843 242.856 282.668 243.353 282.549C243.85 282.431 244.357 282.341 244.873 282.279C245.526 282.203 246.057 282.142 246.464 282.095C246.871 282.043 247.167 281.96 247.352 281.846C247.536 281.732 247.629 281.548 247.629 281.292V281.242C247.629 280.622 247.453 280.141 247.103 279.801C246.757 279.46 246.241 279.289 245.555 279.289C244.84 279.289 244.276 279.448 243.864 279.765C243.457 280.078 243.175 280.426 243.019 280.809L241.023 280.355C241.26 279.692 241.606 279.157 242.06 278.749C242.52 278.337 243.048 278.039 243.644 277.855C244.241 277.665 244.868 277.57 245.526 277.57C245.962 277.57 246.424 277.623 246.911 277.727C247.404 277.826 247.863 278.011 248.289 278.281C248.72 278.551 249.073 278.936 249.347 279.438C249.622 279.936 249.759 280.582 249.759 281.377V288.622H247.685V287.13H247.6C247.463 287.405 247.257 287.675 246.982 287.94C246.708 288.205 246.355 288.425 245.924 288.6C245.493 288.775 244.977 288.863 244.376 288.863ZM244.837 287.159C245.424 287.159 245.926 287.043 246.343 286.811C246.764 286.578 247.084 286.275 247.302 285.901C247.524 285.523 247.636 285.118 247.636 284.687V283.281C247.56 283.356 247.413 283.427 247.195 283.494C246.982 283.555 246.738 283.61 246.464 283.657C246.189 283.7 245.922 283.74 245.661 283.778C245.401 283.811 245.183 283.839 245.008 283.863C244.596 283.915 244.219 284.003 243.879 284.126C243.542 284.249 243.272 284.427 243.069 284.659C242.87 284.886 242.771 285.189 242.771 285.568C242.771 286.093 242.965 286.491 243.353 286.761C243.741 287.026 244.236 287.159 244.837 287.159Z" fill="#101828"/>
</svg>
