<svg width="1276" height="157" viewBox="0 0 1276 157" fill="none" xmlns="http://www.w3.org/2000/svg">
<path d="M-16.7537 162.074H1283.86V32.1554C1263.42 27.63 1241.63 28.2567 1222.02 35.5852C1202.41 42.9137 1183.7 56.7613 1174.31 75.4748C1171.22 53.9533 1158.01 34.3169 1139.83 22.394C1121.66 10.471 1098.87 6.15782 1077.39 9.48401C1067.12 11.0731 1056.93 14.4289 1048.62 20.6766C1037.29 29.1846 1029.33 42.6077 1026.81 56.554C1025.92 46.3139 1018.12 37.0312 1008.18 34.3959C998.248 31.7606 986.595 36.1379 980.739 44.5867C977.039 28.1729 964.691 14.3845 949.521 7.11028C934.356 -0.168854 916.695 -1.31377 900.193 1.9532C885.861 4.79576 871.93 11.0484 861.639 21.4218C851.343 31.7952 841.871 46.3435 843.445 60.8722C806.089 39.1976 761.788 29.7076 718.833 34.1837C675.879 38.6597 631.701 56.1 599.615 85.0142C595.594 81.609 590.754 79.181 585.619 77.9917C576.783 75.9437 567.548 77.5821 558.668 79.4327C557.168 79.7486 558.796 83.509 560.325 83.3758C543.113 50.4001 510.686 22.4384 473.494 22.394C458.985 22.3792 444.792 26.5443 431.23 31.7063C406.51 41.1075 381.971 54.659 368.543 77.4488C346.129 71.7736 319.625 76.6346 300.748 89.9887C296.329 74.6852 284.075 62.3527 269.615 55.6707C255.155 48.9936 238.7 47.5378 222.856 49.1565C201.698 51.3131 179.294 60.3984 169.752 79.413C166.303 69.0149 155.875 61.341 144.923 61.1485C133.97 60.9511 123.276 68.2451 119.458 78.5148C107.947 54.1112 81.3634 38.8374 54.4639 36.7696C27.5649 34.6969 0.73597 44.4288 -21.6387 59.5052C-20.2465 94.9434 -18.1454 126.636 -16.7537 162.074Z" fill="#C6D1EE"/>
</svg>
