<svg width="1376" height="797" viewBox="0 0 1376 797" fill="none" xmlns="http://www.w3.org/2000/svg">
<path d="M1299.42 796.611H31.5702C26.3809 740.145 18.6099 684.088 36.4498 630.267C54.2897 576.441 90.9069 527.007 142.425 503.349C177.195 487.384 216.247 483.925 254.449 481.832C272.523 480.84 291.461 479.863 306.981 470.546C318.966 463.351 327.683 451.872 335.608 440.354C375.411 382.511 404.268 315.133 458.272 270.269C501.917 234.012 560.121 215.826 616.632 220.786C673.148 225.75 727.296 253.801 763.956 297.11C790.621 328.611 807.754 366.906 823.921 404.881C829.12 417.085 834.641 429.842 845.021 438.103C857.29 447.865 874.162 449.513 889.791 448.245C930.658 444.919 968.018 424.799 1007.42 413.448C1056.19 399.393 1110.09 399.265 1156.42 419.987C1202.75 440.714 1240.05 483.999 1247.02 534.282C1253.86 583.612 1232.78 637.048 1254.03 682.085C1261.61 698.153 1273.99 711.438 1283 726.756C1296.06 748.954 1302.28 771.018 1299.42 796.611Z" fill="#F2F5FF"/>
<mask id="mask0_98_26621" style="mask-type:luminance" maskUnits="userSpaceOnUse" x="25" y="219" width="1276" height="578">
<path d="M1299.42 796.611H31.5702C26.3809 740.145 18.6099 684.088 36.4498 630.267C54.2897 576.441 90.9069 527.007 142.425 503.349C177.195 487.384 216.247 483.925 254.449 481.832C272.523 480.84 291.461 479.863 306.981 470.546C318.966 463.351 327.683 451.872 335.608 440.354C375.411 382.511 404.268 315.133 458.272 270.269C501.917 234.012 560.121 215.826 616.632 220.786C673.148 225.75 727.296 253.801 763.956 297.11C790.621 328.611 807.754 366.906 823.921 404.881C829.12 417.085 834.641 429.842 845.021 438.103C857.29 447.865 874.162 449.513 889.791 448.245C930.658 444.919 968.018 424.799 1007.42 413.448C1056.19 399.393 1110.09 399.265 1156.42 419.987C1202.75 440.714 1240.05 483.999 1247.02 534.282C1253.86 583.612 1232.78 637.048 1254.03 682.085C1261.61 698.153 1273.99 711.438 1283 726.756C1296.06 748.954 1302.28 771.018 1299.42 796.611Z" fill="white"/>
</mask>
<g mask="url(#mask0_98_26621)">
<path d="M8.24632 802.074H1308.86V672.155C1288.42 667.63 1266.63 668.257 1247.02 675.585C1227.41 682.914 1208.7 696.761 1199.31 715.475C1196.22 693.953 1183.01 674.317 1164.83 662.394C1146.66 650.471 1123.87 646.158 1102.39 649.484C1092.12 651.073 1081.93 654.429 1073.62 660.677C1062.29 669.185 1054.33 682.608 1051.81 696.554C1050.92 686.314 1043.12 677.031 1033.18 674.396C1023.25 671.761 1011.6 676.138 1005.74 684.587C1002.04 668.173 989.691 654.384 974.521 647.11C959.356 639.831 941.695 638.686 925.193 641.953C910.861 644.796 896.93 651.048 886.639 661.422C876.343 671.795 866.871 686.344 868.445 700.872C831.089 679.198 786.788 669.708 743.833 674.184C700.879 678.66 656.701 696.1 624.615 725.014C620.594 721.609 615.754 719.181 610.619 717.992C601.783 715.944 592.548 717.582 583.668 719.433C582.168 719.749 583.796 723.509 585.325 723.376C568.113 690.4 535.686 662.438 498.494 662.394C483.985 662.379 469.792 666.544 456.23 671.706C431.51 681.108 406.971 694.659 393.543 717.449C371.129 711.774 344.625 716.635 325.748 729.989C321.329 714.685 309.075 702.353 294.615 695.671C280.155 688.994 263.7 687.538 247.856 689.156C226.698 691.313 204.294 700.398 194.752 719.413C191.303 709.015 180.875 701.341 169.923 701.149C158.97 700.951 148.276 708.245 144.458 718.515C132.947 694.111 106.363 678.837 79.4639 676.77C52.5649 674.697 25.736 684.429 3.36133 699.505C4.75351 734.943 6.85462 766.636 8.24632 802.074Z" fill="#C6D1EE"/>
</g>
<path d="M643.321 58.5875C643.321 58.5875 636.636 10.8413 626.474 7.84085C616.316 4.84037 569.592 16.413 571.733 22.4189C573.879 28.4198 607.49 26.7074 607.49 26.7074C607.49 26.7074 580.737 30.9959 581.166 36.9969C581.595 42.9978 616.316 41.2853 616.316 41.2853C616.316 41.2853 595.739 43.5209 598.309 48.6188C600.884 53.7216 622.744 53.6031 622.744 53.6031C622.744 53.6031 635.176 64.7414 643.321 58.5875Z" fill="#C6D1EE"/>
<path d="M687.864 56.2615C687.864 56.2615 719.388 19.7919 729.551 22.7874C739.714 25.7879 772.668 60.8807 767.607 64.7596C762.55 68.6385 735.254 48.9429 735.254 48.9429C735.254 48.9429 755.397 67.0741 751.776 71.8807C748.159 76.6924 719.931 56.3948 719.931 56.3948C719.931 56.3948 735.999 69.4429 731.07 72.3299C726.142 75.2169 707.849 63.2495 707.849 63.2495C707.849 63.2495 691.362 65.8502 687.864 56.2615Z" fill="#C6D1EE"/>
<path d="M702.422 55.8971C702.422 74.5859 687.277 89.7363 668.594 89.7363C649.912 89.7363 634.767 74.5859 634.767 55.8971C634.767 37.2082 649.912 22.0577 668.594 22.0577C687.277 22.0577 702.422 37.2082 702.422 55.8971Z" fill="#FFA648"/>
<path d="M698.835 55.8033C698.835 74.4922 683.69 89.6426 665.008 89.6426C646.325 89.6426 631.18 74.4922 631.18 55.8033C631.18 37.1145 646.325 21.964 665.008 21.964C683.69 21.964 698.835 37.1145 698.835 55.8033Z" fill="#FFC967"/>
<path d="M669.513 67.4698C669.232 67.5685 668.926 67.6524 668.595 67.7264V59.8501C669.636 60.166 670.465 60.5114 671.072 60.8766C672.073 61.4984 672.571 62.3719 672.571 63.502C672.571 65.4366 671.55 66.7592 669.513 67.4698ZM659.942 50.6611C658.832 50.059 658.275 49.1461 658.275 47.9222C658.275 46.5947 658.837 45.5534 659.962 44.8131C660.534 44.4381 661.205 44.1568 661.97 43.9693V51.426C661.027 51.1497 660.352 50.8931 659.942 50.6611ZM676.405 55.9811C675.092 54.9447 673.119 54.1156 670.49 53.4938L668.595 53.0497V44.4874C668.644 44.5121 668.694 44.5319 668.743 44.5566C670.455 45.4251 671.378 46.8859 671.501 48.9438H678.373C678.245 45.3067 676.898 42.5332 674.318 40.6234C672.64 39.3748 670.731 38.5358 668.595 38.1015V33.897H661.97V37.9387C659.059 38.3089 656.75 39.2663 655.043 40.7961C652.789 42.8244 651.659 45.3708 651.659 48.4354C651.659 51.7913 652.813 54.2587 655.117 55.8379C656.395 56.7262 658.679 57.5505 661.97 58.3154V67.603C660.8 67.2576 659.883 66.695 659.232 65.9153C658.58 65.1405 658.146 63.9709 657.924 62.4114H651.102C651.102 65.9696 652.394 68.7677 654.974 70.8009C656.814 72.2568 659.148 73.1894 661.97 73.604V77.7148H668.595V73.678C671.585 73.298 674.002 72.3258 675.837 70.7565C678.255 68.6887 679.463 66.0929 679.463 62.969C679.463 59.9192 678.442 57.5899 676.405 55.9811Z" fill="#FFA648"/>
<path d="M883.594 49.2798C883.594 49.2798 871.537 26.5492 867.295 26.7417C863.047 26.9342 848.661 40.4955 850.645 43.1357C852.628 45.7759 864.315 39.3259 864.315 39.3259C864.315 39.3259 855.603 45.9191 856.969 48.8456C858.341 51.772 870.422 45.1344 870.422 45.1344C870.422 45.1344 863.511 49.6795 865.464 51.7966C867.418 53.9138 875.223 50.2174 875.223 50.2174C875.223 50.2174 881.927 53.7114 883.594 49.2798Z" fill="#C6D1EE"/>
<path d="M913.417 31.9185C918.473 44.3942 915.321 57.8766 906.382 62.0368C897.442 66.1921 886.096 59.4509 881.039 46.9752C875.983 34.4995 879.135 21.0171 888.074 16.8569C897.013 12.7016 908.36 19.4429 913.417 31.9185Z" fill="#FFA648"/>
<path d="M911.674 32.653C916.731 45.1287 913.579 58.611 904.639 62.7712C895.7 66.9314 884.354 60.1853 879.297 47.7096C874.24 35.2389 877.393 21.7515 886.332 17.5962C895.271 13.436 906.618 20.1822 911.674 32.653Z" fill="#FFC967"/>
<path d="M900.797 46.9695C900.689 47.0979 900.566 47.2212 900.427 47.3397L898.296 42.0888C898.883 42.0641 899.372 42.1085 899.761 42.222C900.408 42.4095 900.881 42.8834 901.187 43.6384C901.71 44.9314 901.582 46.0418 900.797 46.9695ZM891.671 37.8792C890.975 37.7213 890.462 37.2377 890.132 36.4234C889.771 35.5302 889.762 34.7159 890.097 33.9707C890.27 33.5907 890.516 33.2552 890.832 32.9591L892.85 37.9385C892.322 37.9632 891.927 37.9434 891.671 37.8792ZM900.99 37.7658C900.077 37.366 898.913 37.2476 897.482 37.4203L896.456 37.5437L894.142 31.8289C894.172 31.8339 894.202 31.8388 894.231 31.8438C895.287 32.0412 896.121 32.816 896.737 34.1583L900.028 32.6285C898.982 30.23 897.586 28.6804 895.834 27.9747C894.695 27.5207 893.555 27.3826 892.416 27.5701L891.276 24.762L888.104 26.2326L889.199 28.9321C887.907 29.8303 887.058 30.9802 886.658 32.3817C886.126 34.2373 886.274 36.1866 887.102 38.2346C888.015 40.4751 889.234 41.8667 890.763 42.4096C891.616 42.7156 892.934 42.76 894.71 42.5379L897.226 48.7362C896.57 48.7658 895.982 48.5931 895.455 48.218C894.937 47.8479 894.414 47.162 893.886 46.17L890.62 47.6851C891.582 50.0638 892.958 51.643 894.739 52.4276C896.017 52.9853 897.384 53.0939 898.849 52.7435L899.959 55.4824L903.131 54.0118L902.036 51.3123C903.368 50.3994 904.261 49.2101 904.714 47.7542C905.311 45.8345 905.188 43.8358 904.34 41.7483C903.516 39.7101 902.401 38.3826 900.99 37.7658Z" fill="#FFA648"/>
<path d="M911.325 31.7892C911.325 31.7892 904.053 6.83289 907.087 3.63994C910.116 0.451935 929.188 -1.54672 929.637 1.80908C930.081 5.15994 917.699 9.90248 917.699 9.90248C917.699 9.90248 928.147 7.58791 929.208 10.6575C930.269 13.727 917.491 18.6522 917.491 18.6522C917.491 18.6522 925.311 16.3426 925.424 19.3184C925.533 22.2942 917.684 25.877 917.684 25.877C917.684 25.877 915.488 33.5066 911.325 31.7892Z" fill="#C6D1EE"/>
<path d="M1104.67 796.611C1104.67 796.611 1127.73 737.613 1154.73 730.655C1188.32 721.994 1260.39 747.158 1265.95 757.171C1271.52 767.189 1282.6 796.611 1282.6 796.611H1104.67Z" fill="#1041B7"/>
<path d="M1237.85 772.473C1222.54 765.386 1209.69 753.113 1201.91 738.145C1206.72 736.892 1212.25 738.283 1217.02 739.68C1221.58 741.007 1226.13 742.419 1230.39 744.496C1234.56 746.53 1238.41 749.19 1241.79 752.368C1237.61 748.79 1233.3 745.34 1229.97 740.958C1227.04 737.109 1224.56 732.884 1222.97 728.315C1219.83 719.264 1220.33 709.409 1220.87 699.84C1230.68 704.893 1240.01 710.633 1248 718.247C1255.99 725.867 1262.41 735.396 1265.07 746.11C1266.43 735.683 1271.75 725.734 1279.77 718.938C1282.71 724.169 1284.12 730.052 1284.36 736.048C1284.6 742.049 1283.9 748.04 1283.2 754.006C1286.26 747.033 1291.24 740.904 1297.72 736.911C1299.84 747.67 1299.05 758.946 1295.6 769.354C1276.3 769.941 1255.36 780.581 1237.85 772.473Z" fill="#FFC967"/>
<mask id="mask1_98_26621" style="mask-type:luminance" maskUnits="userSpaceOnUse" x="1201" y="699" width="98" height="77">
<path d="M1237.85 772.473C1222.54 765.386 1209.69 753.113 1201.91 738.145C1206.72 736.892 1212.25 738.283 1217.02 739.68C1221.58 741.007 1226.13 742.419 1230.39 744.496C1234.56 746.53 1238.41 749.19 1241.79 752.368C1237.61 748.79 1233.3 745.34 1229.97 740.958C1227.04 737.109 1224.56 732.884 1222.97 728.315C1219.83 719.264 1220.33 709.409 1220.87 699.84C1230.68 704.893 1240.01 710.633 1248 718.247C1255.99 725.867 1262.41 735.396 1265.07 746.11C1266.43 735.683 1271.75 725.734 1279.77 718.938C1282.71 724.169 1284.12 730.052 1284.36 736.048C1284.6 742.049 1283.9 748.04 1283.2 754.006C1286.26 747.033 1291.24 740.904 1297.72 736.911C1299.84 747.67 1299.05 758.946 1295.6 769.354C1276.3 769.941 1255.36 780.581 1237.85 772.473Z" fill="white"/>
</mask>
<g mask="url(#mask1_98_26621)">
<path d="M1211.34 759.242C1211.34 759.242 1259.44 751.509 1301.25 756.992L1298.89 770.795L1241.18 777.926C1241.18 777.926 1217.03 767.582 1211.34 759.242Z" fill="#FFA648"/>
</g>
<path d="M1206.96 796.611C1206.96 796.611 1219.62 775.021 1232.75 770.545C1261.92 760.606 1290.67 754.703 1306.98 763.626C1314.05 767.495 1322.59 796.611 1322.59 796.611H1206.96Z" fill="#4F5285"/>
<path d="M797.118 142.94C774.933 146.696 771.889 149.741 768.135 171.934C764.38 149.741 761.337 146.696 739.146 142.94C761.337 139.185 764.38 136.14 768.135 113.947C771.889 136.14 774.933 139.185 797.118 142.94Z" fill="#F2F5FF"/>
<path d="M1108.54 60.689C1074.23 66.4975 1069.52 71.2054 1063.72 105.523C1057.91 71.2054 1053.2 66.4975 1018.9 60.689C1053.2 54.8805 1057.91 50.1725 1063.72 15.8545C1069.52 50.1725 1074.23 54.8805 1108.54 60.689Z" fill="#F2F5FF"/>
<path d="M536.198 92.165C525.103 94.0453 523.584 95.5652 521.704 106.664C519.829 95.5652 518.305 94.0453 507.215 92.165C518.305 90.2897 519.829 88.7648 521.704 77.6709C523.584 88.7648 525.103 90.2897 536.198 92.165Z" fill="#F2F5FF"/>
<path d="M649.182 156.754H550.56C552.084 149.973 558.487 145.665 564.881 142.936C571.27 140.207 578.448 139.866 585.374 140.493C584.279 133.362 588.941 125.964 595.616 123.235C602.295 120.506 610.371 122.239 615.852 126.932C621.328 131.625 624.249 138.929 624.288 146.144C627.638 143.888 630.983 141.633 634.332 139.378C640.109 142.373 647.81 150.398 649.182 156.754Z" fill="#3B63C4"/>
<path d="M850.506 109.723H1008.91C1008.73 103.07 1004.54 96.6696 998.812 93.2842C993.084 89.9037 985.61 89.6866 979.695 92.7413C980.425 76.0018 964.451 61.0488 947.707 61.2511C930.963 61.4535 915.937 75.2566 912.542 91.6655C906.805 87.0858 896.923 89.7458 894.25 96.5808C891.309 87.6139 881.083 81.7215 871.852 83.6757C862.622 85.63 849.559 100.331 850.506 109.723Z" fill="#3B63C4"/>
<path d="M145.808 728.868C121.452 730.723 102.467 742.691 88.5798 756.06C106.167 729.04 120.229 700.501 91.6582 712.454C81.273 716.797 73.3008 722.921 67.1815 729.899C68.2979 692.023 66.4923 642.856 47.604 664.688C35.0374 679.212 34.5702 702.49 38.1478 724.377C30.0009 705.51 20.5171 696.79 13.6459 730.654C5.48027 770.894 26.8288 786.775 47.3924 792.944C48.6114 793.427 49.5029 793.546 49.5029 793.546C53.0993 794.518 55.2245 794.987 58.5447 795.471C58.9433 795.446 60.3967 795.772 62.0908 795.969C73.0812 797.533 79.7269 796.611 79.7269 796.611C79.7269 796.611 204.547 724.392 145.808 728.868Z" fill="#FFC967"/>
<mask id="mask2_98_26621" style="mask-type:luminance" maskUnits="userSpaceOnUse" x="11" y="659" width="151" height="138">
<path d="M145.808 728.868C121.452 730.723 102.467 742.691 88.5798 756.06C106.167 729.04 120.229 700.501 91.6582 712.454C81.273 716.797 73.3008 722.921 67.1815 729.899C68.2979 692.023 66.4923 642.856 47.604 664.688C35.0374 679.212 34.5702 702.49 38.1478 724.377C30.0009 705.51 20.5171 696.79 13.6459 730.654C5.48027 770.894 26.8288 786.775 47.3924 792.944C48.6114 793.427 49.5029 793.546 49.5029 793.546C53.0993 794.518 55.2245 794.987 58.5447 795.471C58.9433 795.446 60.3967 795.772 62.0908 795.969C73.0812 797.533 79.7269 796.611 79.7269 796.611C79.7269 796.611 204.547 724.392 145.808 728.868Z" fill="white"/>
</mask>
<g mask="url(#mask2_98_26621)">
<path d="M44.857 793.137C36.3475 792.036 28.4739 786.78 24.1893 779.343C19.9052 771.906 19.3073 762.456 22.6205 754.54C23.3082 752.897 24.1849 751.283 25.5455 750.133C27.3624 748.598 29.8444 748.08 32.2213 748.08C37.9405 748.08 43.4357 750.799 47.5999 754.723C51.7642 758.646 54.7168 763.689 57.0433 768.916C57.1218 763.122 60.5924 757.501 65.7349 754.831C69.9341 752.655 75.2784 752.507 79.302 754.994C83.3261 757.481 85.6132 762.742 84.1461 767.238C88.6157 762.169 94.6343 758.661 100.958 756.287C108.371 753.504 116.801 752.23 124.13 755.226C131.46 758.221 136.969 766.507 134.79 774.122C123.657 781.298 112.599 787.999 99.7941 791.385C82.52 795.959 62.5775 795.431 44.857 793.137Z" fill="#FFA648"/>
</g>
<path d="M38.0625 796.883H127.333C127.333 796.883 121.522 775.198 107.748 770.031C93.9739 764.865 70.7305 783.46 70.7305 783.46C70.7305 783.46 38.5386 766.034 38.0625 796.883Z" fill="#4F5285"/>
<path d="M1375.12 798.16H0.380859V795.604H1375.12V798.16Z" fill="#1041B7"/>
</svg>
