<svg width="36" height="36" viewBox="0 0 36 36" fill="none" xmlns="http://www.w3.org/2000/svg">
<path d="M0 9C0 4.02944 4.02944 0 9 0H27C31.9706 0 36 4.02944 36 9V27C36 31.9706 31.9706 36 27 36H9C4.02944 36 0 31.9706 0 27V9Z" fill="#1041B7"/>
<path d="M11.8116 9.0324C13.1715 9.0324 14.274 10.1349 14.274 11.4948V21.1284C14.274 22.338 14.5716 23.2692 15.1668 23.922C15.762 24.5748 16.6356 24.9012 17.7876 24.9012C18.9396 24.9012 19.8228 24.5748 20.4372 23.922C21.0516 23.2692 21.3588 22.338 21.3588 21.1284V17.1804C21.3588 15.1321 23.7139 13.9792 25.3316 15.2356C25.9322 15.7021 26.2836 16.4199 26.2836 17.1804V21.0996C26.2836 22.9044 25.8996 24.4308 25.1316 25.6788C24.3636 26.9268 23.3268 27.8676 22.0212 28.5012C20.7348 29.1348 19.2948 29.4516 17.7012 29.4516C16.1076 29.4516 14.6772 29.1444 13.41 28.53C12.162 27.8964 11.1732 26.9556 10.4436 25.7076C9.714 24.4404 9.3492 22.9044 9.3492 21.0996V11.4948C9.3492 10.1349 10.4517 9.0324 11.8116 9.0324Z" fill="white"/>
<path d="M26.1 11.475C26.1 12.8419 24.9919 13.95 23.625 13.95C22.2581 13.95 21.15 12.8419 21.15 11.475C21.15 10.1081 22.2581 9 23.625 9C24.9919 9 26.1 10.1081 26.1 11.475Z" fill="#29CAE1"/>
</svg>
