<svg width="126" height="36" viewBox="0 0 126 36" fill="none" xmlns="http://www.w3.org/2000/svg">
<path d="M0.797852 9C0.797852 4.02944 4.82729 0 9.79785 0H27.7979C32.7684 0 36.7979 4.02944 36.7979 9V27C36.7979 31.9706 32.7684 36 27.7979 36H9.79785C4.82729 36 0.797852 31.9706 0.797852 27V9Z" fill="#1041B7"/>
<path d="M12.6095 9.0324C13.9694 9.0324 15.0719 10.1349 15.0719 11.4948V21.1284C15.0719 22.338 15.3695 23.2692 15.9647 23.922C16.5599 24.5748 17.4335 24.9012 18.5855 24.9012C19.7375 24.9012 20.6207 24.5748 21.2351 23.922C21.8495 23.2692 22.1567 22.338 22.1567 21.1284V17.1804C22.1567 15.1321 24.5118 13.9792 26.1295 15.2356C26.7301 15.7021 27.0815 16.4199 27.0815 17.1804V21.0996C27.0815 22.9044 26.6975 24.4308 25.9295 25.6788C25.1615 26.9268 24.1247 27.8676 22.8191 28.5012C21.5327 29.1348 20.0927 29.4516 18.4991 29.4516C16.9055 29.4516 15.4751 29.1444 14.2079 28.53C12.9599 27.8964 11.9711 26.9556 11.2415 25.7076C10.5119 24.4404 10.1471 22.9044 10.1471 21.0996V11.4948C10.1471 10.1349 11.2495 9.0324 12.6095 9.0324Z" fill="white"/>
<path d="M26.8979 11.475C26.8979 12.8419 25.7898 13.95 24.4229 13.95C23.0559 13.95 21.9479 12.8419 21.9479 11.475C21.9479 10.1081 23.0559 9 24.4229 9C25.7898 9 26.8979 10.1081 26.8979 11.475Z" fill="#29CAE1"/>
<path d="M45.428 10.9386V21.4362C45.428 22.5864 45.7277 23.4693 46.3271 24.0849C46.9265 24.6843 47.7689 24.984 48.8543 24.984C49.9559 24.984 50.8064 24.6843 51.4058 24.0849C52.0052 23.4693 52.3049 22.5864 52.3049 21.4362V10.9386H55.7312V21.4119C55.7312 22.8537 55.4153 24.0768 54.7835 25.0812C54.1679 26.0694 53.3336 26.8146 52.2806 27.3168C51.2438 27.819 50.0855 28.0701 48.8057 28.0701C47.5421 28.0701 46.3919 27.819 45.3551 27.3168C44.3345 26.8146 43.5245 26.0694 42.9251 25.0812C42.3257 24.0768 42.026 22.8537 42.026 21.4119V10.9386H45.428Z" fill="#1A1D3E"/>
<path d="M77.6805 14.4378L73.7439 27.9H70.0746L67.6203 18.4959L65.166 27.9H61.4724L57.5115 14.4378H60.9621L63.3435 24.6924L65.9193 14.4378H69.5157L72.0429 24.6681L74.4243 14.4378H77.6805Z" fill="#1A1D3E"/>
<path d="M78.6464 21.1203C78.6464 19.7595 78.9137 18.5526 79.4483 17.4996C79.9991 16.4466 80.7362 15.6366 81.6596 15.0696C82.5992 14.5026 83.6441 14.2191 84.7943 14.2191C85.7987 14.2191 86.6735 14.4216 87.4187 14.8266C88.1801 15.2316 88.7876 15.7419 89.2412 16.3575V14.4378H92.6675V27.9H89.2412V25.9317C88.8038 26.5635 88.1963 27.09 87.4187 27.5112C86.6573 27.9162 85.7744 28.1187 84.77 28.1187C83.636 28.1187 82.5992 27.8271 81.6596 27.2439C80.7362 26.6607 79.9991 25.8426 79.4483 24.7896C78.9137 23.7204 78.6464 22.4973 78.6464 21.1203ZM89.2412 21.1689C89.2412 20.3427 89.0792 19.638 88.7552 19.0548C88.4312 18.4554 87.9938 18.0018 87.443 17.694C86.8922 17.37 86.3009 17.208 85.6691 17.208C85.0373 17.208 84.4541 17.3619 83.9195 17.6697C83.3849 17.9775 82.9475 18.4311 82.6073 19.0305C82.2833 19.6137 82.1213 20.3103 82.1213 21.1203C82.1213 21.9303 82.2833 22.6431 82.6073 23.2587C82.9475 23.8581 83.3849 24.3198 83.9195 24.6438C84.4703 24.9678 85.0535 25.1298 85.6691 25.1298C86.3009 25.1298 86.8922 24.9759 87.443 24.6681C87.9938 24.3441 88.4312 23.8905 88.7552 23.3073C89.0792 22.7079 89.2412 21.9951 89.2412 21.1689Z" fill="#1A1D3E"/>
<path d="M103.45 14.2434C105.054 14.2434 106.35 14.7537 107.338 15.7743C108.326 16.7787 108.821 18.1881 108.821 20.0025V27.9H105.419V20.4642C105.419 19.395 105.151 18.5769 104.617 18.0099C104.082 17.4267 103.353 17.1351 102.43 17.1351C101.49 17.1351 100.745 17.4267 100.194 18.0099C99.6595 18.5769 99.3922 19.395 99.3922 20.4642V27.9H95.9902V14.4378H99.3922V16.1145C99.8458 15.5313 100.421 15.0777 101.117 14.7537C101.83 14.4135 102.608 14.2434 103.45 14.2434Z" fill="#1A1D3E"/>
<path d="M117.329 14.2191C118.333 14.2191 119.216 14.4216 119.978 14.8266C120.739 15.2154 121.338 15.7257 121.776 16.3575V14.4378H125.202V27.9972C125.202 29.2446 124.951 30.3543 124.449 31.3263C123.947 32.3145 123.193 33.0921 122.189 33.6591C121.184 34.2423 119.969 34.5339 118.544 34.5339C116.632 34.5339 115.061 34.0884 113.83 33.1974C112.615 32.3064 111.926 31.0914 111.764 29.5524H115.142C115.32 30.168 115.701 30.654 116.284 31.0104C116.883 31.383 117.604 31.5693 118.447 31.5693C119.435 31.5693 120.237 31.2696 120.852 30.6702C121.468 30.087 121.776 29.196 121.776 27.9972V25.9074C121.338 26.5392 120.731 27.0657 119.953 27.4869C119.192 27.9081 118.317 28.1187 117.329 28.1187C116.195 28.1187 115.158 27.8271 114.218 27.2439C113.279 26.6607 112.534 25.8426 111.983 24.7896C111.448 23.7204 111.181 22.4973 111.181 21.1203C111.181 19.7595 111.448 18.5526 111.983 17.4996C112.534 16.4466 113.271 15.6366 114.194 15.0696C115.134 14.5026 116.179 14.2191 117.329 14.2191ZM121.776 21.1689C121.776 20.3427 121.614 19.638 121.29 19.0548C120.966 18.4554 120.528 18.0018 119.978 17.694C119.427 17.37 118.835 17.208 118.204 17.208C117.572 17.208 116.989 17.3619 116.454 17.6697C115.919 17.9775 115.482 18.4311 115.142 19.0305C114.818 19.6137 114.656 20.3103 114.656 21.1203C114.656 21.9303 114.818 22.6431 115.142 23.2587C115.482 23.8581 115.919 24.3198 116.454 24.6438C117.005 24.9678 117.588 25.1298 118.204 25.1298C118.835 25.1298 119.427 24.9759 119.978 24.6681C120.528 24.3441 120.966 23.8905 121.29 23.3073C121.614 22.7079 121.776 21.9951 121.776 21.1689Z" fill="#1A1D3E"/>
</svg>
