<svg width="360" height="259" viewBox="0 0 360 259" fill="none" xmlns="http://www.w3.org/2000/svg">
<mask id="mask0_2001_11691" style="mask-type:alpha" maskUnits="userSpaceOnUse" x="0" y="0" width="360" height="259">
<path d="M236.268 10.3722C271.303 30.2299 305.836 32.0245 324.982 46.3466C331.51 51.229 364.834 83.6551 358.408 116.213C349.479 161.458 302.572 240.15 246.963 253.766C191.352 267.381 189.843 244.807 105.912 248.4C60.5341 250.342 30.9726 217.343 22.3084 178.255C19.4085 165.172 -1.0662 153.142 0.907158 139.777C3.94038 119.216 32.882 97.866 48.592 83.1353C105.024 30.2234 177.424 -22.9794 236.268 10.3722Z" fill="white"/>
</mask>
<g mask="url(#mask0_2001_11691)">
<mask id="mask1_2001_11691" style="mask-type:alpha" maskUnits="userSpaceOnUse" x="9" y="32" width="347" height="261">
<path d="M355.532 92.4236L155.2 292.755L95.2452 232.8L95.4008 232.644L9.63574 146.881L69.5915 86.926L155.356 172.689L295.576 32.4688L355.532 92.4236Z" fill="white"/>
</mask>
<g mask="url(#mask1_2001_11691)">
<path d="M355.531 92.4236L155.199 292.755L95.2442 232.8L95.3998 232.644L9.63477 146.881L69.5905 86.926L155.355 172.689L295.575 32.4688L355.531 92.4236Z" fill="#5578EC"/>
<mask id="mask2_2001_11691" style="mask-type:alpha" maskUnits="userSpaceOnUse" x="-52" y="-189" width="544" height="544">
<path d="M491.952 -67.4779L70.0403 -188.379L-51.085 233.757L370.827 354.658L491.952 -67.4779Z" fill="white"/>
</mask>
<g mask="url(#mask2_2001_11691)">
<path d="M491.952 -67.4631L70.0264 -188.379L-51.084 233.743L370.842 354.658L491.952 -67.4631Z" fill="#1041B7"/>
<path d="M238.444 -140.068C222.171 -60.8422 236.468 -5.96158 281.336 24.5745C326.202 55.1097 400.266 50.9443 503.525 12.0757" stroke="white" stroke-width="1.32"/>
<path d="M267.735 -131.717C254.797 -36.8178 211.635 1.75813 138.244 -15.99C28.1587 -42.6118 130.46 -102.738 158.119 -59.1565C185.777 -15.575 162.288 54.898 90.3565 87.199C42.4021 108.733 -6.25644 112.426 -55.6182 98.2803M420.195 182.809C262.395 126.335 118.426 147.068 -11.7105 245.005" stroke="white" stroke-width="1.32"/>
<path d="M-1.44238 60.668C95.8997 119.171 147.339 196.328 152.875 292.14" stroke="white" stroke-width="1.32"/>
<path d="M449.213 81.5968C357.664 132.271 302.063 138.698 282.41 100.877C252.93 44.1466 343.767 32.1601 344.241 75.4461C344.713 118.733 271.949 132.126 183.122 121.901C123.904 115.084 45.24 136.961 -52.8701 187.532M213.741 309.617C221.103 244.504 244.339 215.104 283.447 221.419C322.555 227.734 359.817 256.442 395.232 307.543" stroke="white" stroke-width="1.32"/>
<path d="M435.977 127.816C349.794 174.203 298.052 245.557 280.75 341.878" stroke="white" stroke-width="1.32"/>
<path d="M23.8457 -27.4336C180.563 53.8724 284.979 182.362 337.097 358.034" stroke="white" stroke-width="1.32"/>
<path d="M131.051 -170.869C77.2349 -175.032 52.215 -158.716 55.9921 -121.921C61.6574 -66.727 108.014 47.8593 5.57424 36.0673M-26.2607 147.158C-3.60419 217.568 34.1212 244.36 86.9155 227.533C166.107 202.294 191.288 199.559 216.359 216.696C233.074 228.121 241.598 261.78 241.931 317.672" stroke="white" stroke-width="1.32"/>
</g>
</g>
<mask id="mask3_2001_11691" style="mask-type:alpha" maskUnits="userSpaceOnUse" x="47" y="164" width="39" height="38">
<path d="M47.9639 177.226L59.4242 164.938L85.3604 189.124L73.9001 201.413L47.9639 177.226Z" fill="white"/>
</mask>
<g mask="url(#mask3_2001_11691)">
<path d="M47.9639 177.226L59.4242 164.938L85.3604 189.124L73.9001 201.413L47.9639 177.226Z" fill="white" stroke="#01133B" stroke-width="1.525" stroke-linecap="round" stroke-linejoin="round"/>
<path d="M73.2823 175.212C80.4299 167.547 80.4716 155.968 73.374 149.35C66.2774 142.732 54.729 143.581 47.5814 151.246C40.4338 158.911 40.3921 170.49 47.4888 177.108C54.5854 183.726 66.1347 182.877 73.2823 175.212Z" fill="#01133B"/>
</g>
<path fill-rule="evenodd" clip-rule="evenodd" d="M128.344 274.798C131.772 262.304 141.061 249.385 156.213 236.037C178.939 216.017 196.322 190.099 212.697 167.542C229.071 144.986 233.386 149.412 244.146 142.583C254.905 135.752 248.691 112.741 261.216 102.775C275.426 111.137 292.969 121.299 313.846 133.263L152.397 295.018L128.344 274.798Z" fill="white" stroke="#01133B" stroke-width="1.32" stroke-linecap="round" stroke-linejoin="round"/>
<path fill-rule="evenodd" clip-rule="evenodd" d="M302.197 102.396L287.724 118.172L306.756 129.055L317.242 117.972V104.174L302.197 102.396Z" fill="white" stroke="#01133B" stroke-width="1.32" stroke-linecap="round" stroke-linejoin="round"/>
<path fill-rule="evenodd" clip-rule="evenodd" d="M297.264 101.768C300.023 100.925 302.819 101.83 305.677 104.355C312.792 110.639 317.091 116.613 318.529 122.303L331.405 114.836C333.922 113.376 336.224 111.573 338.245 109.481L341.245 106.374L287.155 53.3159C286.931 53.0987 286.666 52.9279 286.376 52.8134C286.085 52.6989 285.775 52.643 285.463 52.6489C285.01 52.6559 284.569 52.7923 284.191 53.042C283.814 53.2917 283.516 53.6443 283.332 54.058L282.124 56.7679C281.397 58.3985 281.092 60.1859 281.238 61.9654C281.383 63.7448 281.974 65.4589 282.957 66.9497L293.213 82.516C294.976 85.192 296.049 88.2629 296.336 91.4545L297.264 101.768Z" fill="white" stroke="#01133B" stroke-width="1.32" stroke-linecap="round" stroke-linejoin="round"/>
<mask id="mask4_2001_11691" style="mask-type:alpha" maskUnits="userSpaceOnUse" x="281" y="53" width="60" height="69">
<path d="M296.944 91.3999L297.809 101C300.514 100.449 303.271 101.415 306.081 103.897C312.992 110 317.268 115.827 318.909 121.376L331.097 114.307C333.566 112.875 335.823 111.108 337.805 109.055L340.383 106.385C340.437 106.33 340.479 106.264 340.508 106.192C340.536 106.12 340.55 106.044 340.549 105.966C340.547 105.889 340.531 105.813 340.5 105.742C340.469 105.671 340.424 105.607 340.368 105.553L286.731 53.7551C286.527 53.558 286.278 53.413 286.006 53.3324C285.733 53.2518 285.446 53.2381 285.167 53.2922C284.888 53.3464 284.627 53.4669 284.405 53.6436C284.182 53.8203 284.006 54.048 283.89 54.3073L282.682 57.0172C281.997 58.5542 281.71 60.2389 281.847 61.9162C281.984 63.5934 282.541 65.2092 283.467 66.6144L293.723 82.1807C295.541 84.9408 296.648 88.1081 296.944 91.3999Z" fill="white"/>
</mask>
<g mask="url(#mask4_2001_11691)">
<path d="M297.264 101.77C300.023 100.927 302.819 101.832 305.677 104.356C312.792 110.641 317.091 116.614 318.529 122.305L331.405 114.838C333.922 113.378 336.224 111.575 338.245 109.483L341.245 106.376L287.155 53.3179C286.931 53.1006 286.666 52.9298 286.376 52.8154C286.085 52.7009 285.775 52.645 285.463 52.6508C285.01 52.6578 284.569 52.7943 284.191 53.044C283.814 53.2937 283.516 53.6462 283.332 54.06L282.124 56.7698C281.397 58.4005 281.092 60.1879 281.238 61.9673C281.383 63.7467 281.974 65.4609 282.957 66.9516L293.213 82.518C294.976 85.1939 296.049 88.2648 296.336 91.4565L297.264 101.77Z" stroke="#01133B" stroke-width="1.32"/>
<path d="M302.291 108.652L314.183 100.527L330.536 102.999" stroke="#01133B" stroke-width="6.355" stroke-linejoin="round"/>
<path fill-rule="evenodd" clip-rule="evenodd" d="M280.983 54.8512L339.661 111.515L342.981 108.076L284.304 51.4141L280.983 54.8512Z" fill="#01133B"/>
<path fill-rule="evenodd" clip-rule="evenodd" d="M329.121 94.1387L326.304 99.5232C325.168 101.694 324.615 104.122 324.701 106.57C324.787 109.018 325.508 111.402 326.793 113.488L331.062 120.418L347.232 115.504L349.89 100.983L336.206 92.5312L329.121 94.1387Z" fill="white" stroke="#01133B" stroke-width="1.32" stroke-linecap="round" stroke-linejoin="round"/>
</g>
<path d="M291.229 81.933L295.629 79.0332M293.765 86.7654L299.822 85.4656M295.109 92.8319L300.374 92.3529" stroke="#01133B" stroke-width="1.32" stroke-linecap="round" stroke-linejoin="round"/>
<path fill-rule="evenodd" clip-rule="evenodd" d="M309.809 126.253L306.722 129.089L287.518 118.04L288.765 116.766L309.809 126.253Z" fill="#01133B"/>
<path d="M277.112 112.553C270.011 120.037 270.011 138.282 259.365 149.929C248.72 161.574 242.979 160.582 232.683 171.816C222.386 183.05 220.305 188.77 212.439 201.826C207.194 210.531 191.795 228.419 166.239 255.49" stroke="#01133B" stroke-width="1.32" stroke-linecap="round" stroke-linejoin="round"/>
<path d="M172.315 249.923C168.271 246.844 163.318 245.199 158.236 245.247C153.153 245.295 148.232 247.033 144.246 250.187L143.188 251.026" stroke="#01133B" stroke-width="1.32" stroke-linecap="round" stroke-linejoin="round"/>
<path d="M174.362 247.203C164.631 239.794 151.117 239.917 141.521 247.502L140.327 248.446" stroke="#01133B" stroke-width="0.838" stroke-linecap="round" stroke-linejoin="round" stroke-dasharray="2.51 2.51"/>
<path fill-rule="evenodd" clip-rule="evenodd" d="M74.0615 179.335L86.2834 219.557L132.929 203.638C137.21 202.177 141.114 199.784 144.358 196.632C147.603 193.48 150.108 189.647 151.692 185.41L177.312 116.899L151.202 101.5L133.724 119.973L116.521 165.871L74.0615 179.335Z" fill="white" stroke="#01133B" stroke-width="1.32" stroke-linecap="round" stroke-linejoin="round"/>
<path fill-rule="evenodd" clip-rule="evenodd" d="M152.57 104.746L154.959 107.538L138.022 123.467L135.855 119.697L152.57 104.746ZM170.412 135.257L184.396 97.6663C184.619 97.0686 184.721 96.433 184.698 95.7956C184.675 95.1583 184.526 94.5318 184.261 93.9519C183.996 93.3721 183.619 92.8501 183.151 92.416C182.684 91.9819 182.136 91.6441 181.538 91.4219L181.507 91.4099C180.288 90.9666 178.943 91.0254 177.767 91.5735C176.592 92.1217 175.682 93.1142 175.238 94.3329L168.312 113.36" fill="white"/>
<path d="M170.412 135.257L184.396 97.6663C184.618 97.0686 184.721 96.433 184.698 95.7956C184.674 95.1583 184.526 94.5318 184.26 93.9519C183.995 93.3721 183.618 92.8501 183.151 92.416C182.684 91.9819 182.135 91.6441 181.538 91.4219L181.506 91.4099C180.287 90.9666 178.942 91.0254 177.767 91.5735C176.591 92.1217 175.682 93.1142 175.238 94.3329L168.312 113.36" stroke="#01133B" stroke-width="1.32" stroke-linecap="round" stroke-linejoin="round"/>
<path fill-rule="evenodd" clip-rule="evenodd" d="M168.364 113.348L175.333 94.2003C175.547 93.6128 175.643 92.9887 175.614 92.3642C175.586 91.7396 175.434 91.1269 175.167 90.5614C174.9 89.9959 174.524 89.4889 174.06 89.0695C173.597 88.6501 173.055 88.3268 172.465 88.1181C171.268 87.6941 169.951 87.7602 168.803 88.3021C167.654 88.844 166.765 89.8177 166.331 91.0114L159.361 110.159" fill="white"/>
<path d="M168.364 113.348L175.333 94.2003C175.547 93.6128 175.643 92.9887 175.614 92.3642C175.586 91.7396 175.434 91.1269 175.167 90.5614C174.9 89.9959 174.524 89.4889 174.06 89.0695C173.597 88.6501 173.055 88.3268 172.465 88.1181C171.268 87.6941 169.951 87.7602 168.803 88.3021C167.654 88.844 166.765 89.8177 166.331 91.0114L159.361 110.159" stroke="#01133B" stroke-width="1.32" stroke-linecap="round" stroke-linejoin="round"/>
<path fill-rule="evenodd" clip-rule="evenodd" d="M159.362 110.158L166.331 91.0112C166.543 90.4269 166.639 89.8064 166.612 89.1851C166.585 88.5639 166.436 87.954 166.173 87.3904C165.91 86.8268 165.539 86.3205 165.081 85.9004C164.622 85.4802 164.086 85.1546 163.501 84.9419L163.463 84.929C162.266 84.5047 160.95 84.5706 159.801 85.1123C158.652 85.654 157.763 86.6277 157.329 87.8214L150.359 106.968" fill="white"/>
<path d="M159.362 110.158L166.331 91.0112C166.543 90.4269 166.639 89.8064 166.612 89.1851C166.585 88.5639 166.436 87.954 166.173 87.3904C165.91 86.8268 165.539 86.3205 165.081 85.9004C164.622 85.4802 164.086 85.1546 163.501 84.9419L163.463 84.929C162.266 84.5047 160.95 84.5706 159.801 85.1123C158.652 85.654 157.763 86.6277 157.329 87.8214L150.359 106.968" stroke="#01133B" stroke-width="1.32" stroke-linecap="round" stroke-linejoin="round"/>
<path fill-rule="evenodd" clip-rule="evenodd" d="M151.401 103.884C151.374 103.77 151.346 103.656 151.316 103.542C149.322 95.7708 142.138 90.1546 133.79 90.4464C132.511 90.496 131.303 91.0444 130.425 91.9741C129.546 92.9038 129.067 94.1407 129.089 95.4197C129.112 96.6987 129.634 97.918 130.545 98.8161C131.456 99.7142 132.683 100.22 133.962 100.224L134.131 100.221C136.168 100.15 138.149 100.891 139.64 102.281C141.131 103.671 142.008 105.597 142.079 107.634C142.15 109.671 141.409 111.652 140.019 113.143C138.629 114.634 136.704 115.511 134.667 115.582C132.665 115.652 130.715 114.938 129.231 113.591C127.748 112.244 126.85 110.371 126.727 108.372L126.718 108.17C126.66 106.882 126.096 105.67 125.149 104.796C124.202 103.922 122.949 103.458 121.661 103.503C120.374 103.548 119.156 104.099 118.272 105.037C117.389 105.975 116.911 107.223 116.943 108.511C117.24 117.031 123.591 123.912 131.718 125.164H132.196" fill="white"/>
<path d="M151.401 103.884C151.374 103.77 151.346 103.656 151.316 103.542C149.322 95.7708 142.138 90.1546 133.79 90.4464C132.511 90.496 131.303 91.0444 130.425 91.9741C129.546 92.9038 129.067 94.1407 129.089 95.4197C129.112 96.6987 129.634 97.918 130.545 98.8161C131.456 99.7142 132.683 100.22 133.962 100.224L134.131 100.221C136.168 100.15 138.149 100.891 139.64 102.281C141.131 103.671 142.008 105.597 142.079 107.634C142.15 109.671 141.409 111.652 140.019 113.143C138.629 114.634 136.704 115.511 134.667 115.582C132.665 115.652 130.715 114.938 129.231 113.591C127.748 112.244 126.85 110.371 126.727 108.372L126.718 108.17C126.66 106.882 126.096 105.67 125.149 104.796C124.202 103.922 122.949 103.458 121.661 103.503C120.374 103.548 119.156 104.099 118.272 105.037C117.389 105.975 116.911 107.223 116.943 108.511C117.24 117.031 123.591 123.912 131.718 125.164H132.196M152.152 102.01L150.591 106.337" stroke="#01133B" stroke-width="1.32" stroke-linecap="round" stroke-linejoin="round"/>
<path fill-rule="evenodd" clip-rule="evenodd" d="M67.9011 187.039C66.0244 189.892 65.162 193.293 65.4527 196.696C65.7434 200.098 67.1704 203.304 69.5039 205.797L150.588 292.444L186.102 267.498L128.857 206.126L131.163 205.637C136.425 204.52 141.328 202.12 145.438 198.65C149.547 195.18 152.734 190.748 154.716 185.748L168.88 150.001L124.454 129.02L111.1 163.063L85.6817 172.759C78.4028 175.534 72.182 180.53 67.9011 187.039Z" fill="#EDEEF2" stroke="#01133B" stroke-width="1.525" stroke-linecap="round" stroke-linejoin="round"/>
<path fill-rule="evenodd" clip-rule="evenodd" d="M122.09 126.955L114.73 141.911L169.305 164.53L172.077 147.956L122.09 126.955Z" fill="#EDEEF2" stroke="#01133B" stroke-width="1.525" stroke-linecap="round" stroke-linejoin="round"/>
<path d="M130.014 205.859L107.254 210.581" stroke="#01133B" stroke-width="1.32" stroke-linecap="round" stroke-linejoin="round"/>
<path fill-rule="evenodd" clip-rule="evenodd" d="M118.17 144.522L162.261 165.421L163.599 162.038L118.7 143.537L118.17 144.522ZM34.8271 149.67C40.7046 143.369 50.5769 143.024 56.8787 148.9C57.0315 149.043 57.1816 149.189 57.3289 149.337L60.5252 152.568C66.6213 158.728 66.7668 168.602 60.856 174.94C55.0128 181.207 45.197 181.55 38.9313 175.707L35.6285 172.627C29.0682 166.51 28.7088 156.231 34.8271 149.67Z" fill="#01133B"/>
<path fill-rule="evenodd" clip-rule="evenodd" d="M59.1631 149.855L66.3265 156.534C71.7556 161.597 72.052 170.103 66.9889 175.533C61.9258 180.962 53.42 181.259 47.99 176.196L40.8285 169.518C35.3985 164.454 35.1021 155.949 40.1652 150.519C45.2283 145.09 53.7341 144.792 59.1631 149.855Z" fill="white" stroke="#01133B" stroke-width="1.32" stroke-linecap="round" stroke-linejoin="round"/>
<path fill-rule="evenodd" clip-rule="evenodd" d="M61.9434 154.055L64.6634 154.276L66.3728 154.95L66.7017 158.492L63.119 156.79L61.9434 154.055Z" fill="white"/>
<path d="M67.3752 166.143C66.5485 167.029 65.4035 167.551 64.192 167.593C62.9805 167.636 61.8017 167.195 60.915 166.369" stroke="#01133B" stroke-width="1.32" stroke-linecap="round" stroke-linejoin="round"/>
<path fill-rule="evenodd" clip-rule="evenodd" d="M34.8964 154.252C30.8626 155.572 29.862 158.491 31.8946 163.007C33.5039 166.584 37.6952 172.364 48.2189 176.47C48.6543 176.641 45.5998 170.856 45.5173 170.293C44.8947 166.024 43.4606 162.02 41.2139 158.28C38.6726 154.047 36.5668 152.705 34.8964 154.252Z" fill="#01133B"/>
<path fill-rule="evenodd" clip-rule="evenodd" d="M30.4166 155.871C28.4043 156.487 15.8693 153.487 23.2967 160.896C25.864 163.456 31.3013 168.972 35.8836 173.644C38.7278 176.544 41.7481 177.988 43.5408 178.518C43.9244 178.584 39.2856 173.48 39.2031 172.916C38.5796 168.647 38.8205 165.353 36.5748 161.614C32.7624 155.265 32.4288 155.256 30.4166 155.871Z" fill="#01133B"/>
<path fill-rule="evenodd" clip-rule="evenodd" d="M45.0018 169.57L43.7604 170.549C43.3722 170.855 43.0595 171.246 42.8463 171.692C42.633 172.138 42.525 172.627 42.5305 173.122C42.5359 173.616 42.6547 174.103 42.8778 174.544C43.1008 174.985 43.422 175.37 43.8169 175.667C44.8033 176.41 45.9912 176.838 47.225 176.895C48.4587 176.951 49.6808 176.634 50.731 175.984L51.4212 175.557" fill="white"/>
<path d="M45.0018 169.57L43.7604 170.549C43.3722 170.855 43.0595 171.246 42.8463 171.692C42.633 172.138 42.525 172.627 42.5305 173.122C42.5359 173.616 42.6547 174.103 42.8778 174.544C43.1008 174.985 43.422 175.37 43.8169 175.667C44.8033 176.41 45.9912 176.838 47.225 176.895C48.4587 176.951 49.6808 176.634 50.731 175.984L51.4212 175.557M45.6809 172.712L47.6802 174.577M46.9372 173.884L45.3122 174.116" stroke="#01133B" stroke-width="1.32" stroke-linecap="round" stroke-linejoin="round"/>
<path fill-rule="evenodd" clip-rule="evenodd" d="M63.2051 153.717L68.6063 155.586L67.4418 158.783" fill="white"/>
<path d="M63.2051 153.717L68.6063 155.586L67.4418 158.783" stroke="#01133B" stroke-width="1.32" stroke-linecap="round" stroke-linejoin="round"/>
<path d="M59.5127 158.958C60.5105 157.889 60.8208 156.557 60.2066 155.983C59.5914 155.411 58.2842 155.814 57.2864 156.883C56.2895 157.953 55.9782 159.285 56.5925 159.858C57.2076 160.431 58.5149 160.028 59.5127 158.958Z" stroke="#01133B" stroke-width="0.88" stroke-linecap="round" stroke-linejoin="round"/>
<path d="M59.5124 158.957C60.1109 158.316 60.0979 157.33 59.4837 156.757C58.8685 156.184 57.8856 156.24 57.2871 156.881C56.6876 157.523 56.7006 158.509 57.3149 159.082C57.93 159.655 58.9139 159.599 59.5124 158.957Z" fill="#01133B"/>
<path fill-rule="evenodd" clip-rule="evenodd" d="M34.8037 153.445C40.1234 144.14 45.823 138.696 51.9005 137.114C61.0169 134.74 66.3903 149.362 51.1158 159.079C40.9331 165.557 35.4967 163.679 34.8037 153.445Z" fill="#01133B"/>
<path fill-rule="evenodd" clip-rule="evenodd" d="M30.8108 160.551C28.5595 157.034 32.509 141.153 39.6798 138.072C44.4604 136.019 47.1211 140.172 47.6622 150.535C37.9307 159.556 32.3126 162.895 30.8108 160.551Z" fill="#01133B"/>
</g>
</svg>
